<svg width="200" height="26" viewBox="0 0 200 26" fill="none" xmlns="http://www.w3.org/2000/svg">
<path d="M37 25.0012V21.6512H37.9951V10.5512H37V7.00122H44.4883C46.5121 7.00122 48.0297 7.33496 49.041 8.00121C50.2849 8.81746 50.9068 10.185 50.9068 12.1012C50.9068 13.785 50.1679 15.01 48.6927 15.7762C50.4839 16.5925 51.3795 17.95 51.3795 19.8512C51.3795 21.8012 50.7488 23.185 49.4888 24.0012C48.4775 24.6675 46.9425 25.0012 44.8863 25.0012H37ZM42.498 10.5512V14.2762H44.2146C45.7906 14.2762 46.578 13.66 46.578 12.4262C46.578 11.1762 45.7894 10.5512 44.2146 10.5512H42.498ZM42.498 17.3512V21.6512H44.4634C46.0718 21.6512 46.8753 20.935 46.8753 19.5C46.8753 18.0675 46.0382 17.35 44.3626 17.35H42.498V17.3512Z" fill="#BE8256"/>
<path d="M55.4589 7.00122H65.5843V10.3512H64.8877L67.6492 21.6525H68.4701V25.0012H61.9023V21.6512H62.997L62.4509 19.1512H57.9977L57.4255 21.6512H58.5202V25.0012H52.6738V21.6512H53.4948L56.2314 10.35H55.4602V7.00122H55.4589ZM59.937 10.3512L58.6931 16.0275H61.7282L60.4843 10.3512H59.937Z" fill="#BE8256"/>
<path d="M75.51 21.6513H79.1422V9.95124H82.7744V21.6513H86.4564V10.35H85.3119V7H91.9295V10.35H90.9593V21.6513H91.9295V25.0013H70.012V21.6513H71.0071V10.35H70.012V7H76.6295V10.35H75.51V21.6513Z" fill="#BE8256"/>
<path d="M101.98 25.0013V21.6513H102.976V10.35H101.98V7H114.992V13.325H111.36C111.36 12.0412 111.309 11.2913 111.209 11.075C110.991 10.5925 110.357 10.35 109.306 10.35H107.479V21.6513H109.021V25.0013H101.98Z" fill="#BE8256"/>
<path d="M122.256 21.6513H123.45V25.0013H116.758V21.6513H117.753V10.35H116.758V7H124.445C126.634 7 128.227 7.40876 129.222 8.22501C130.3 9.12501 130.839 10.65 130.839 12.8C130.839 14.6838 130.449 16.0837 129.671 16.9987C129.008 17.765 127.987 18.2487 126.611 18.4487C125.863 18.5662 124.413 18.625 122.257 18.625L122.256 21.6513ZM122.256 10.3512V15.2763H123.382C124.482 15.2763 125.234 15.1425 125.634 14.8762C126.134 14.5425 126.386 13.86 126.386 12.8263C126.386 11.76 126.119 11.06 125.585 10.7262C125.2 10.4762 124.468 10.3512 123.382 10.3512H122.256Z" fill="#BE8256"/>
<path d="M133.4 7.00122H143.526V10.3512H142.829L145.591 21.6525H146.411V25.0012H139.844V21.6512H140.939L140.392 19.1512H135.939L135.366 21.6512H136.461V25.0012H130.616V21.6512H131.436L134.172 10.35H133.401V7.00122H133.4ZM137.879 10.3512L136.635 16.0275H139.669L138.425 10.3512H137.879Z" fill="#BE8256"/>
<path d="M147.954 7.00122H154.422V10.3512H153.452V14.2762H157.806V10.3512H156.787V7.00122H163.254V10.3512H162.259V21.6525H163.254V25.0012H156.787V21.6512H157.806V17.3512H153.452V21.6512H154.422V25.0012H147.954V21.6512H148.949V10.35H147.954V7.00122Z" fill="#BE8256"/>
<path d="M165.841 7.00122H172.309V10.3512H171.339V16.3762L176.14 10.9275V10.3525H175.145V7.00248H181.589V10.3525H180.593V21.6537H181.589V25.0012H175.145V21.6512H176.14V15.6262L171.339 21.075V21.6512H172.309V25.0012H165.841V21.6512H166.836V10.35H165.841V7.00122Z" fill="#BE8256"/>
<path d="M187.486 25.0013V21.6513H188.904V10.35H187.959C187.494 10.35 187.17 10.4088 186.988 10.525C186.74 10.6913 186.615 11 186.615 11.45V13.325H183.157V7H199.054V13.325H195.596C195.596 11.8925 195.596 11.2088 195.596 11.275C195.563 10.8413 195.41 10.5788 195.136 10.4875C194.862 10.3963 194.253 10.35 193.308 10.35V21.6513H194.726V25.0013H187.486Z" fill="#BE8256"/>
<path d="M27 20H1V25H27V20Z" fill="#BE8256"/>
<path d="M5 18H23C23 18 23 9.38883 23 3C16.3684 -2.852 11.6316 3.99998 5 3.99998C5 6.75078 5 18 5 18Z" fill="#BE8256"/>
</svg>
